<mxfile host="Electron" agent="Mozilla/5.0 (Windows NT 10.0; Win64; x64) AppleWebKit/537.36 (KHTML, like Gecko) draw.io/28.2.5 Chrome/138.0.7204.251 Electron/37.6.1 Safari/537.36" version="28.2.5">
  <diagram name="Страница — 1" id="mYk_PtJc2NqXYtCiQ0Ni">
    <mxGraphModel dx="1917" dy="873" grid="1" gridSize="10" guides="1" tooltips="1" connect="1" arrows="1" fold="1" page="1" pageScale="1" pageWidth="827" pageHeight="1169" math="0" shadow="0">
      <root>
        <mxCell id="0" />
        <mxCell id="1" parent="0" />
        <mxCell id="DbbyLd86OG4RNBCqpp4L-1" value="Продажа депозитов через отделения" style="rounded=0;whiteSpace=wrap;html=1;fillColor=#E7E7E7;strokeColor=#FFFFFF;" vertex="1" parent="1">
          <mxGeometry x="160" y="80" width="120" height="60" as="geometry" />
        </mxCell>
        <mxCell id="DbbyLd86OG4RNBCqpp4L-3" value="Расчет ставок по депозитам" style="rounded=0;whiteSpace=wrap;html=1;fillColor=#E7E7E7;strokeColor=#FFFFFF;" vertex="1" parent="1">
          <mxGeometry x="280" y="80" width="120" height="60" as="geometry" />
        </mxCell>
        <mxCell id="DbbyLd86OG4RNBCqpp4L-4" value="Взаимодействие с клиентами" style="rounded=0;whiteSpace=wrap;html=1;fillColor=#E7E7E7;strokeColor=#FFFFFF;" vertex="1" parent="1">
          <mxGeometry x="400" y="80" width="120" height="60" as="geometry" />
        </mxCell>
        <mxCell id="DbbyLd86OG4RNBCqpp4L-5" value="Передача документов" style="rounded=0;whiteSpace=wrap;html=1;fillColor=#E7E7E7;strokeColor=#FFFFFF;" vertex="1" parent="1">
          <mxGeometry x="520" y="80" width="120" height="60" as="geometry" />
        </mxCell>
        <mxCell id="DbbyLd86OG4RNBCqpp4L-7" value="Продажа депозитов через кол-центры" style="rounded=0;whiteSpace=wrap;html=1;fillColor=#E7E7E7;strokeColor=#FFFFFF;" vertex="1" parent="1">
          <mxGeometry x="40" y="80" width="120" height="60" as="geometry" />
        </mxCell>
        <mxCell id="DbbyLd86OG4RNBCqpp4L-8" value="Кол-центр" style="rounded=0;whiteSpace=wrap;html=1;fillColor=#E7E7E7;strokeColor=#FFFFFF;rotation=-90;" vertex="1" parent="1">
          <mxGeometry x="-61.73" y="162.04" width="128.75" height="84.7" as="geometry" />
        </mxCell>
        <mxCell id="DbbyLd86OG4RNBCqpp4L-12" value="" style="rounded=0;whiteSpace=wrap;html=1;fillColor=#FFFFFF;strokeColor=#E7E7E7;" vertex="1" parent="1">
          <mxGeometry x="40" y="140" width="120" height="130" as="geometry" />
        </mxCell>
        <mxCell id="DbbyLd86OG4RNBCqpp4L-13" value="" style="rounded=0;whiteSpace=wrap;html=1;fillColor=#FFFFFF;strokeColor=#E7E7E7;" vertex="1" parent="1">
          <mxGeometry x="160" y="140" width="120" height="130" as="geometry" />
        </mxCell>
        <mxCell id="DbbyLd86OG4RNBCqpp4L-14" value="" style="rounded=0;whiteSpace=wrap;html=1;fillColor=#FFFFFF;strokeColor=#E7E7E7;" vertex="1" parent="1">
          <mxGeometry x="280" y="140" width="120" height="130" as="geometry" />
        </mxCell>
        <mxCell id="DbbyLd86OG4RNBCqpp4L-15" value="" style="rounded=0;whiteSpace=wrap;html=1;fillColor=#FFFFFF;strokeColor=#E7E7E7;" vertex="1" parent="1">
          <mxGeometry x="400" y="140" width="120" height="130" as="geometry" />
        </mxCell>
        <mxCell id="DbbyLd86OG4RNBCqpp4L-16" value="" style="rounded=0;whiteSpace=wrap;html=1;fillColor=#FFFFFF;strokeColor=#E7E7E7;" vertex="1" parent="1">
          <mxGeometry x="520" y="140" width="120" height="130" as="geometry" />
        </mxCell>
        <mxCell id="DbbyLd86OG4RNBCqpp4L-18" value="" style="rounded=0;whiteSpace=wrap;html=1;fillColor=#FFFFFF;strokeColor=#E7E7E7;" vertex="1" parent="1">
          <mxGeometry x="40" y="270" width="120" height="130" as="geometry" />
        </mxCell>
        <mxCell id="DbbyLd86OG4RNBCqpp4L-19" value="" style="rounded=0;whiteSpace=wrap;html=1;fillColor=#FFFFFF;strokeColor=#E7E7E7;" vertex="1" parent="1">
          <mxGeometry x="160" y="270" width="120" height="130" as="geometry" />
        </mxCell>
        <mxCell id="DbbyLd86OG4RNBCqpp4L-20" value="" style="rounded=0;whiteSpace=wrap;html=1;fillColor=#FFFFFF;strokeColor=#E7E7E7;" vertex="1" parent="1">
          <mxGeometry x="280" y="270" width="120" height="130" as="geometry" />
        </mxCell>
        <mxCell id="DbbyLd86OG4RNBCqpp4L-21" value="" style="rounded=0;whiteSpace=wrap;html=1;fillColor=#FFFFFF;strokeColor=#E7E7E7;" vertex="1" parent="1">
          <mxGeometry x="400" y="270" width="120" height="130" as="geometry" />
        </mxCell>
        <mxCell id="DbbyLd86OG4RNBCqpp4L-22" value="" style="rounded=0;whiteSpace=wrap;html=1;fillColor=#FFFFFF;strokeColor=#E7E7E7;" vertex="1" parent="1">
          <mxGeometry x="520" y="270" width="120" height="130" as="geometry" />
        </mxCell>
        <mxCell id="DbbyLd86OG4RNBCqpp4L-24" value="" style="rounded=0;whiteSpace=wrap;html=1;fillColor=#FFFFFF;strokeColor=#E7E7E7;" vertex="1" parent="1">
          <mxGeometry x="40" y="400" width="120" height="130" as="geometry" />
        </mxCell>
        <mxCell id="DbbyLd86OG4RNBCqpp4L-25" value="" style="rounded=0;whiteSpace=wrap;html=1;fillColor=#FFFFFF;strokeColor=#E7E7E7;" vertex="1" parent="1">
          <mxGeometry x="160" y="400" width="120" height="130" as="geometry" />
        </mxCell>
        <mxCell id="DbbyLd86OG4RNBCqpp4L-26" value="" style="rounded=0;whiteSpace=wrap;html=1;fillColor=#FFFFFF;strokeColor=#E7E7E7;" vertex="1" parent="1">
          <mxGeometry x="280" y="400" width="120" height="130" as="geometry" />
        </mxCell>
        <mxCell id="DbbyLd86OG4RNBCqpp4L-27" value="" style="rounded=0;whiteSpace=wrap;html=1;fillColor=#FFFFFF;strokeColor=#E7E7E7;" vertex="1" parent="1">
          <mxGeometry x="400" y="400" width="120" height="130" as="geometry" />
        </mxCell>
        <mxCell id="DbbyLd86OG4RNBCqpp4L-28" value="" style="rounded=0;whiteSpace=wrap;html=1;fillColor=#FFFFFF;strokeColor=#E7E7E7;" vertex="1" parent="1">
          <mxGeometry x="520" y="400" width="120" height="130" as="geometry" />
        </mxCell>
        <mxCell id="DbbyLd86OG4RNBCqpp4L-30" value="" style="rounded=0;whiteSpace=wrap;html=1;fillColor=#FFFFFF;strokeColor=#E7E7E7;" vertex="1" parent="1">
          <mxGeometry x="40" y="530" width="120" height="130" as="geometry" />
        </mxCell>
        <mxCell id="DbbyLd86OG4RNBCqpp4L-31" value="" style="rounded=0;whiteSpace=wrap;html=1;fillColor=#FFFFFF;strokeColor=#E7E7E7;" vertex="1" parent="1">
          <mxGeometry x="160" y="530" width="120" height="130" as="geometry" />
        </mxCell>
        <mxCell id="DbbyLd86OG4RNBCqpp4L-32" value="" style="rounded=0;whiteSpace=wrap;html=1;fillColor=#FFFFFF;strokeColor=#E7E7E7;" vertex="1" parent="1">
          <mxGeometry x="280" y="530" width="120" height="130" as="geometry" />
        </mxCell>
        <mxCell id="DbbyLd86OG4RNBCqpp4L-33" value="" style="rounded=0;whiteSpace=wrap;html=1;fillColor=#FFFFFF;strokeColor=#E7E7E7;" vertex="1" parent="1">
          <mxGeometry x="400" y="530" width="120" height="130" as="geometry" />
        </mxCell>
        <mxCell id="DbbyLd86OG4RNBCqpp4L-34" value="" style="rounded=0;whiteSpace=wrap;html=1;fillColor=#FFFFFF;strokeColor=#E7E7E7;" vertex="1" parent="1">
          <mxGeometry x="520" y="530" width="120" height="130" as="geometry" />
        </mxCell>
        <mxCell id="DbbyLd86OG4RNBCqpp4L-36" value="Фронт-офис" style="rounded=0;whiteSpace=wrap;html=1;fillColor=#E7E7E7;strokeColor=#FFFFFF;rotation=-90;" vertex="1" parent="1">
          <mxGeometry x="-64.05" y="294.68" width="128.75" height="80.62" as="geometry" />
        </mxCell>
        <mxCell id="DbbyLd86OG4RNBCqpp4L-37" value="Бэк-офис" style="rounded=0;whiteSpace=wrap;html=1;fillColor=#E7E7E7;strokeColor=#FFFFFF;rotation=-90;" vertex="1" parent="1">
          <mxGeometry x="-64.04499999999997" y="424.695" width="128.75" height="80.62" as="geometry" />
        </mxCell>
        <mxCell id="DbbyLd86OG4RNBCqpp4L-38" value="Отдел кредитования" style="rounded=0;whiteSpace=wrap;html=1;fillColor=#E7E7E7;strokeColor=#FFFFFF;rotation=-90;" vertex="1" parent="1">
          <mxGeometry x="-64.04499999999997" y="554.695" width="128.75" height="80.62" as="geometry" />
        </mxCell>
        <mxCell id="DbbyLd86OG4RNBCqpp4L-39" value="CRM-система" style="rounded=1;whiteSpace=wrap;html=1;fillColor=#DDE6F7;" vertex="1" parent="1">
          <mxGeometry x="50" y="150" width="100" height="110" as="geometry" />
        </mxCell>
        <mxCell id="DbbyLd86OG4RNBCqpp4L-40" value="АБС" style="rounded=1;whiteSpace=wrap;html=1;fillColor=#DDE6F7;" vertex="1" parent="1">
          <mxGeometry x="50" y="280" width="220" height="370" as="geometry" />
        </mxCell>
        <mxCell id="DbbyLd86OG4RNBCqpp4L-41" value="CRM-система" style="rounded=1;whiteSpace=wrap;html=1;fillColor=#DDE6F7;" vertex="1" parent="1">
          <mxGeometry x="410" y="150" width="100" height="110" as="geometry" />
        </mxCell>
        <mxCell id="DbbyLd86OG4RNBCqpp4L-42" value="Sms-оповещение" style="rounded=1;whiteSpace=wrap;html=1;fillColor=#DDE6F7;" vertex="1" parent="1">
          <mxGeometry x="410" y="280" width="100" height="240" as="geometry" />
        </mxCell>
        <mxCell id="DbbyLd86OG4RNBCqpp4L-43" value="MS Excel" style="rounded=1;whiteSpace=wrap;html=1;fillColor=#DDE6F7;" vertex="1" parent="1">
          <mxGeometry x="290" y="410" width="100" height="240" as="geometry" />
        </mxCell>
        <mxCell id="DbbyLd86OG4RNBCqpp4L-44" value="E-mail" style="rounded=1;whiteSpace=wrap;html=1;fillColor=#DDE6F7;" vertex="1" parent="1">
          <mxGeometry x="530" y="150" width="100" height="500" as="geometry" />
        </mxCell>
      </root>
    </mxGraphModel>
  </diagram>
</mxfile>
